# xmcd
#
# Track frame offsets: 
#        150
#        15149
#        30367
#        45027
#
# Disc length: 773 seconds
#
# Revision: 0
# Processed by: cddbd v1.5.2PL0 Copyright (c) Steve Scherf et al.
# Submitted via: ExactAudioCopyFreeDBPlugin 1.0
#
DISCID=13030304
DTITLE=Mara Kayser - Mein schönster Weihnachtstraum
DYEAR=1900
DGENRE=Folk
TTITLE0=Mein schönster Weihnachtstraum
TTITLE1=Der Trommelmann
TTITLE2=Jedes Jahr wünsche ich mir Engel
TTITLE3=Weil's nacha Zeit is
EXTD=
EXTT0=
EXTT1=
EXTT2=
EXTT3=
PLAYORDER=
